<svg id="图层_1" data-name="图层 1" xmlns="http://www.w3.org/2000/svg" viewBox="0 0 1133.59 1115.22"><defs><style>.cls-1{fill:#efefef;}</style></defs><title>康乐logo - 灰</title><path class="cls-1" d="M699.84,1115.22c-24.69-2.72-49.49-3.67-73.55-8.38-207.5-40.6-347.22-162.09-421.59-358.65-13.94-36.84-20.87-76.65-28-115.64-3.94-21.52-18-12.28-28.54-13.79-13.76-2-11,8.83-11,16.56-.11,95.74-.36,191.49.19,287.23.08,13.48-3.8,17.66-17.14,17.38-35-.75-70-.49-105-.08C4.48,940,0,937.44,0,925.21q.57-376.9.09-753.82c0-10.61,2.74-14.64,13.78-14.48,36,.53,71.94.66,107.89,0,12.17-.23,15.63,3.6,15.57,15.73q-.72,143.61-.07,287.23c0,6,2.72,16.63,5.42,17.05,10.2,1.58,21,.43,31.36-1.2,1.94-.31,3.41-7.4,4.07-11.52,11.17-69.36,34.14-134.7,70.35-194.72,82-136,199.14-224.73,355.76-258C631.14,5.74,658.89,4,686.25.32c11.55-1.55,16.47,2.38,16.31,15-.6,49.07-.48,98.17-.11,147.25.07,9.67-2.62,13.26-12.81,14.22C520,192.86,391.27,302.3,352.51,469.91c-46.75,202.09,70.33,394,252.73,450.22,27.56,8.49,56.89,11.41,85.55,16,7.44,1.2,11.58,2.58,11.55,11-.22,53-.14,105.95-.27,158.93C702.06,1108.37,701,1110.66,699.84,1115.22Z"/><path class="cls-1" d="M702.27,245c0,17.13,0,33.55,0,50,0,33.52-.71,67.06.3,100.56.43,14.23-3.89,19.46-18.18,22.66-57.63,12.92-94.69,49.66-106.82,106.73-11.91,56,.16,107.66,46,146.5,36.36,30.81,80.38,39.66,126.64,38.92C815.62,709.3,874,689.47,922.73,644.2c21.23-19.72,44.76-26.08,73.41-13.87,43.6,18.6,88.21,34.83,137.45,54-9.29,7.8-16.34,13.28-22.89,19.3-79.65,73.16-170.05,127.33-276,152.09-64.72,15.13-130.62,22.75-196,4.38-85.56-24-149.69-76.77-192.47-154.11-92.43-167.1-15.59-376.49,162.46-445.28C634.22,250.86,677,243.38,702.27,245Z"/><path class="cls-1" d="M824.38,647c-2.66-1.56-3.67-1.88-4.29-2.56-17.41-19.15-16.37-18.3.06-38.27,10.49-12.76,16.89-28.81,26.06-42.78,6-9.2,13.74-17.28,20.64-25.92,7.11-8.91,14.15-17.88,21.34-27-32.86-22-88.6-23.46-135.56,49.1-1.8-4.28-2.77-7.63-4.49-10.55-6.09-10.33-10.77-22.16-19-30.42-17.95-18-35.12-12.58-46.78,13.71,2,1.63,4,3.7,6.46,5,10.37,5.81,10.7,12.52,4.76,22.65-20,34.11-19.79,52.65,5.76,82.05C716.51,661.85,738,677.85,759.2,697l-7.24,9c-42.36-36.15-84.52-70.23-124.3-106.88C607.57,580.67,600,555.1,605.39,527c9.4-48.93,44.91-70.62,92.46-55.22,14.64,4.74,28.64,11.91,42.23,19.25,8.61,4.65,15.22,5,23.93,0,22.77-13.2,46.39-24.13,73.86-23.76,21.49.29,37.86,9.61,48.56,27.16,17.44,28.6,19.85,58.86,2.5,88.42C873.17,609.69,849.42,629,824.38,647Z"/></svg>