<svg id="图层_1" data-name="图层 1" xmlns="http://www.w3.org/2000/svg" viewBox="0 0 778.36 157.95"><defs><style>.cls-1{fill:#d4352d;}.cls-2{fill:#231815;}</style></defs><title>康乐园徽横</title><path class="cls-1" d="M178.29,168.58v25.27c-5.94-.91-11.75-1.35-17.33-2.73-31.62-7.81-54.34-33-59.37-65.41-.38-2.43-.41-2.45-5.49-2v45.07H76.29V58.34h19.6V103c5,1.36,5.46,1.08,6.41-3.65a78.84,78.84,0,0,1,70.14-63c1.88-.18,3.76-.29,5.81-.44V61c-15.69.78-28.8,6.84-39.1,18.58-8.43,9.61-12.66,20.94-13.24,33.68C124.87,136.09,142.73,166.89,178.29,168.58Z" transform="translate(-76.29 -35.91)"/><path class="cls-1" d="M240.91,132.55c-10.41,10-21.72,17.51-34.93,22-11.23,3.83-22.73,5.83-34.53,3.6-19.74-3.73-37-22.72-36.22-45.25a44.54,44.54,0,0,1,37.58-42c1.69-.26,3.39-.4,5.35-.63V94.49A6.89,6.89,0,0,1,177,95c-10.44,2.17-16.94,9.23-17.35,18.86-.44,10.44,5.36,18.63,15.68,21.26,12.51,3.19,24.06.83,34.11-7.42,3.92-3.22,7.62-4.62,12.67-2.3C228,128.09,234.32,130.07,240.91,132.55Z" transform="translate(-76.29 -35.91)"/><path d="M672.36,77.85a26.44,26.44,0,0,1,5-.78c2.57.08,4.12,2.38,2.91,4.64s-3.09,4.1-4.72,6.09c-1.36,1.65-2.79,3.25-4.19,4.87l.6,1c1-.31,2.24-.34,2.94-1,3.13-2.85,6-5.81,10.75-6,2.09-.09,3.63-3.31,2.76-5.22-.7-1.52-2.27-3-.46-4.44s3.77-.83,5.56.52a4.3,4.3,0,0,1,1.65,5.27c-.29.92-.41,1.89-.61,2.83,5.13.5,10,1.16,14.81,1.38,4,.18,6.12,1.28,5.89,4.11a5.53,5.53,0,0,1-1.46,3.11c-4.82,5-9.75,10-14.65,14.91a5.48,5.48,0,0,1-1.4,1.11c-2.91,1.37-5.8,2.81-8.8,3.94-.66.25-1.75-.64-3-1.12a143.39,143.39,0,0,1-31.17,31.29c9.2-10.24,18.33-20.45,24.59-32.76l-7.67-3.24c-5.43,2.68-11.26,5.56-17.08,8.45-4.16,2.06-4.45,1.69-5.17-2.84-.57-3.57.15-5.85,3-8.3,3.34-2.84,5.81-6.69,8.76-10.21-4.35,2.27-8.59,4.26-12.57,6.66-2,1.19-3.74,1-4.81-.4a6.72,6.72,0,0,1-1-4.71c.67-4.46,4.17-6.88,7.27-9.74,4.09-3.76,7.56-8.19,11.34-12.28,2.44-2.65,5-5.2,7.44-7.82a100,100,0,0,0,6.85-7.59c1-1.28,1.15-3.18,1.75-5,3.82-.24,4.73,2.7,4.4,5.95a15.71,15.71,0,0,1-4.85,10.31c-4.53,3.8-10,6.55-13.21,11.8l.64.86ZM706,93.2l-.72-.87c-2.39-.24-4.78-.6-7.18-.67-1.26,0-3.3,0-3.65.71a45.82,45.82,0,0,0-3.88,10c-.43,1.86,1.67,2.6,3.08,1.46C697.89,100.43,701.91,96.77,706,93.2Zm-23,1.37c-3-.78-5,.86-3.94,4,.61,1.86,2,3.48,3,5.21l1-.25Zm-23.62,11.65c.18.29.37.58.56.87,2.11-1,4.25-1.94,6.33-3,3.16-1.59,3.23-2.15.71-5.12Z" transform="translate(-76.29 -35.91)"/><path d="M361.81,75.94c-10.15,2.1-14,.87-16.46-5.32.43,0,1-.23,1.18-.05,3.13,2.81,6.06,1.24,9.22-.09,4.52-1.92,9.17-3.57,13.83-5.12,2.59-.86,6.86,2.21,7,4.82a2,2,0,0,1-.83,1.41c-4.62,3.25-9.28,6.44-13.93,9.65l1,.64c-.17,1.68-.45,3.35-.5,5-.09,2.69,0,5.38,0,8.41,3.21-.75,6.42-.88,7.6-4.68v3.58c2.42-1.36,5.33-2,5.88-3.51,1.09-3,2.33-6.62-.95-9.46-1.22-1.06-.79-3.61.78-3.7a10.32,10.32,0,0,1,5.61,1.21c.88.5,1.2,2.56,1.17,3.91-.07,3-.51,6-.86,9.61,1.79,0,3.54,0,5.28,0,4.42-.15,8.87-.72,13.25-.38,2,.16,4.2,1.77,5.8,3.26,1.34,1.24-.12,4.08-2,4.73-3.64,1.27-7.47,2.21-10.84,4-6.89,3.71-13.53,7.89-20.37,11.94a12.63,12.63,0,0,0,2.6,1c3.56.49,3,3.8,3.07,5.67.05,1.34-2.38,3.74-4,4a116.19,116.19,0,0,1-16.67,1.4c-1.4,0-3.07-1.47-4.19-2.67s-.3-2.5.67-3.89a9.44,9.44,0,0,0,1.23-5.15c0-3.9-.42-7.79-.68-12a36.52,36.52,0,0,0-18.61,12.11L335,116c-.09-2-.51-4.08-.19-6,.36-2.16.67-4.18,3.41-5.61,2.56-1.33,4.14-4.6,6.08-7.07,3.09-3.93,6.15-7.86,9.13-11.86.71-1,.94-2.23,1.58-3.24a8.39,8.39,0,0,1,2.16-2.39c1.62-1.12,3.38-2,5.08-3ZM395.87,97l-.31-.83c-4.57.38-9.14.7-13.7,1.17a3,3,0,0,0-2.13,1.3c-1.5,3.2-2.78,6.5-4.14,9.77l.51.41ZM355.1,88.45c-2.93,4.42-5.39,8.12-8,12.08C354.92,99.3,356.65,96.86,355.1,88.45ZM373,99.4c-2.82.23-4.78.23-5.08,2.83-.28,2.31-.5,4.64-.74,7l.49.19Z" transform="translate(-76.29 -35.91)"/><path d="M445.76,90.74c-.95,1.21-1.84,2.47-2.85,3.62-5.8,6.59-11.59,13.19-17.47,19.7-5.69,6.3-11.31,12.7-17.35,18.66-2.5,2.47-6,3.92-9.41,5.26,4.23-4.4,8.56-8.71,12.68-13.22,5.05-5.53,9.9-11.23,14.87-16.84,4.29-4.84,8.62-9.65,12.93-14.47,1.41-1.57,2.85-3.12,4.22-4.73,1.76-2.07,3.55-3.89,1.66-7.15-1.14-2-1-4.7-1.36-7.09a1.91,1.91,0,0,1,.21-1.12c3.44-6,1.25-11.56-1.25-17.13-.39-.87-.84-2.57-.61-2.7a11.51,11.51,0,0,1,4-1.29c.53-.08,1.28.58,1.75,1.08,3.62,3.81,7.29,7.59,6.43,13.58-.14.93.47,2,.74,3,2.81-.83,1.89-5.76,6.41-4.06l.14-1.28-1.42-1.19,3.8-.53c0,1.59.55,3.53-.16,4.72-2.23,3.77-4.95,7.23-7.43,10.86a31.19,31.19,0,0,0-1.74,3.49c1.33-.39,2.16-.56,2.93-.87,5.4-2.18,7.81.31,9.33,5.24.6,2,1.57,4.33,1,6-1.13,3.23.56,6.07.24,9.07-.14,1.27-.72,2.49-.7,3.85l1-1.5c-.55,5-1.13,9.14-1.43,13.33-.14,2,.36,4,.43,5.93a49.5,49.5,0,0,1,0,8.61c-.33,2.34-7.24,4.28-8.88,2.54a59.92,59.92,0,0,1-6.29-7.92c-.9-1.38-1.56-2.21-3.26-1.69-1.87.58-2.56-.21-3.86-1.89-5.27-6.82-1-14-1.34-20.94-.17-3.43,1.74-7,2.71-10.46ZM461.3,131v-35l-7.24,7.82,5.25,2.32c-3.43,4.09-6.4,7.63-9.35,11.13,2.16,2.15,6.91-1.74,6.34,3.88L452.63,124C453.42,128.22,457.45,128.58,461.3,131Zm.89-39.1a29.46,29.46,0,0,0-1.78-5.43,4.17,4.17,0,0,0-3-1.93c-3.25,0-7.22,5.08-7.15,8.9Zm-13.12,13c2.78-3,5.08-5.5,7.85-8.48C448.09,95.85,448.24,95.83,449.07,104.85Zm-.14,11.6c1.26-1.85,2.2-3.23,3.23-4.76h-3.8C448.54,113.23,448.71,114.59,448.93,116.45Z" transform="translate(-76.29 -35.91)"/><path d="M519.19,114l-13.88,3.61c-.91-3,.27-4.31,2.25-5.09l12.14-4.74c-3.45-7.31-1-14.33,3.12-21.55-3.12.21-5,1.23-6.28,3.53-2,3.78-4,7.65-6.33,11.25a10.84,10.84,0,0,1-5.65,4.81c-1.32.45-2.16,2.34-3.19,3.6a4.43,4.43,0,0,1-2.18,1.79c3.2-6.19,6.21-12.49,9.65-18.55s7.33-11.91,10.76-18.17c-3.54,1-7,1.89-9.53-1.13-1.06-1.24,1.06-6.73,2.35-6.74a31.8,31.8,0,0,0,4.87.9c3.25.09,6.32-2,9.74-.62,2.68,1.12,3.41,2.62,1.74,5-2.6,3.76-5.38,7.41-8,11.12-.46.62-.79,1.34-1.46,2.5,3.44-.81,5.78-2.09,7-5,2.12-4.92,4.73-5.62,9.42-2.94.95.55,2.46.1,3.71.18,1.76.12,4.8-.1,5,.56a9.3,9.3,0,0,1-.12,6.25,37,37,0,0,1-5.56,8.53c-2.75,3.25-2.11,7-2.26,10.62-.5,12.81-.82,25.63-1.25,38.44a3.89,3.89,0,0,1-.72,2.22c-1.37,1.68-2.91,3.24-4.54,5L516.3,134.72l-6.79,6c-3-3-2.31-7.46.76-11.76C513.51,124.38,516.05,119.31,519.19,114Zm9.72,27.68a141.94,141.94,0,0,0,1.8-39.24l-7.38,5.46c.79,1.49,2,2.88,2.13,4.34.06,1-1.52,2-2.38,3q-2.18,2.55-4.36,5.09l.77.77,4-1.58c.13.39.26.77.38,1.16l-6.64,2.14.17.38h4.82c-.89,1.77-1.65,3.36-2.48,4.91s-2.27,2.81-2.17,4.12c.09,1.1,1.95,2.13,3.12,3.07C523.19,137.28,525.73,139.18,528.91,141.63ZM530.73,84c-5.59,3.44-8.94,16.36-5.16,19.9,1.72-1.84,4.58-3.5,4.93-5.57C531.26,93.81,530.73,89.07,530.73,84Zm6.09,4.87.82.29L542,79.7h-6.11C536.19,82.91,536.5,85.89,536.82,88.87Z" transform="translate(-76.29 -35.91)"/><path d="M610.32,110.09c.41,2.93.71,5.88,1.25,8.78.47,2.54,1.61,5,1.71,7.54.06,1.79-1,3.72-1.86,5.4-.23.42-1.92.3-2.83.05a51.64,51.64,0,0,1-5.22-1.89c-1.21-.48-2.37-1.06-3.57-1.56-1.47-.62-3-1.19-4.78-1.92-.25-1.42-.61-3.47-1.08-6.11l12.35,2.54c0-5.52-.44-10.16-2-13.92.34-3.48.63-6.51,1-10.64l-16.85,9.1c-3-.75-5.16-4.24-4.32-9.07,1-5.93,2.24-11.83,3.37-17.74a4,4,0,0,0,.25-1.49c-1.32-6.07,2.72-8.93,6.93-11.7.34-.23.65-.6,1-.65,4.48-.7,8-3.47,11.83-5.5,3.14-1.64,5.77,0,7.08,3.82a53.76,53.76,0,0,0,1.58,5.14c1.07,2.33-.46,3-2,3.3a27.85,27.85,0,0,1-5.23-.14c-1.2-.05-2.17.18-1.73-1.89.3-1.43-.62-.7-1.68-.24a30.66,30.66,0,0,1-8.14,2.09c-2.46.32-2.51,1.92-2.5,3.59a29.47,29.47,0,0,1-2.16,12.42,24,24,0,0,0-.82,3.94c5.39-2.77,10.22-4.94,14.65-7.72,1.3-.81,1.39-3.43,2.25-5.12A19.14,19.14,0,0,1,611,77.59c.89.82,2.22,1.48,2.6,2.49a48.56,48.56,0,0,1,2.14,8,3.26,3.26,0,0,1-1,2.38c-3.89,3.84-4.05,8.78-4.09,13.72,0,.56,1.13,1.5,1.86,1.65a29.73,29.73,0,0,1,15.18,7.63c3,2.89,3.78,8.19,2.15,12.06-1.16,2.75-3.49,2.16-5.33,2.25-1,.05-2.45-1.44-3.05-2.58-1.85-3.53-3.12-7.37-5.13-10.79-1.11-1.89-3.24-3.17-4.91-4.72Z" transform="translate(-76.29 -35.91)"/><path d="M307.58,91.22a89.39,89.39,0,0,0-4.86,8.69,5.78,5.78,0,0,1-4.29,3.67,13,13,0,0,0-2.86,1.66l2.82,1.37c-3,6.09-8.08,9-14.46,10.59a23.15,23.15,0,0,0-8.35,4.33c-3.12,2.44-8.21,1.39-9.11-2.53-1-4.18-1.33-8.06,2.89-11.37,1.92-1.52,2.5-4.9,3.4-7.54,1.09-3.24,1.86-6.58,2.82-9.86a15.08,15.08,0,0,1,.95-2.09l1.07.15c-.76,6.92-1.52,13.84-2.39,21.66,4-1.37,7.33-2.25,10.43-3.65,2.34-1.07,2.68-3.27,1.73-5.67a14.54,14.54,0,0,1,.14-11.89c1.55-3.4,2.91-6.87,4.29-10.34.62-1.57,4.57-3,6.67-2.24,1.73.59,2.82,3.38,2,5.26a5.35,5.35,0,0,1-1.4,2.29c-3.28,2.28-2.52,5.75-3.12,8.81l.61.71c2.89-1.62,6.09-2.86,8.6-4.94,5.3-4.36,7.06-2,11.63.83,2.8,1.74,3.1,4.74,3.19,7.73.2,6.73.6,13.41,2.8,19.88,1.44,4.27-.07,5.43-4.46,5.12-3.81-.27-5-2.19-5.43-5.42-.95-7.06-1.91-14.11-3-21.15a24.4,24.4,0,0,0-1.29-4Z" transform="translate(-76.29 -35.91)"/><path d="M834.93,109.47c.3-3.85.67-7.7.88-11.56.17-3,.26-6,.17-9.07-.05-1.85.81-4-1.53-5.42-.6-.37-.09-2.49-.09-3.8l1.41-.19a20.57,20.57,0,0,1,1.31,4.32c.53,7.7,1,15.4,1.27,23.11a48.48,48.48,0,0,1-.76,8.39c-.41,2.75-1.82,3.26-3.83,1.21-2.73-2.82-5.3-5.81-7.75-8.89-4.67-5.88-5-5.93-9,.08-1.54,2.3-3.38,4.4-5.24,6.8-2-4.43-1.14-7.5,1.74-10.71s4.7-6.93,7-10.44l-.55-.69c-2.86,1.66-5.65,3.43-8.57,5s-5.93,3.12-9.46.76c.28,4.56.56,9,.88,14.15.7-3.32,1.25-5.94,1.79-8.55.37,2.75.7,5.29,1,7.83l.72,0c.09-1.57.17-3.14.26-4.71l.79.05c0,5.64,0,11.28-.06,16.93a2.28,2.28,0,0,1-1.34,1.68c-3.41.85-7.88-2.74-8.14-6.2-.26-3.64-1.23-7.28-1-10.88a141.21,141.21,0,0,1,2.31-20.33c1.1-5.36,3.46-10.46,5.35-15.64a5.29,5.29,0,0,1,2.25-2.5Q804.44,81,802.1,91.92l.87.47L817.6,78.83l-5.18-2.47c1.18-4.6,11-5.57,16.28-1.65-.38,1.55-.78,3.15-1.23,5,3.09.92,4.79,2.87,3.81,6.31a3.4,3.4,0,0,1-1,1.73c-5.37,4.14-5.83,4.73-7.69,10.06,2.35,1.85,4.71,3.31,6.54,5.28s3.1,4.38,4.61,6.61ZM824.24,81.82c-4.94-2.65-12.43,1.37-15.93,8.44Z" transform="translate(-76.29 -35.91)"/><path d="M772.78,101.23l1.75-1.62c.1,1.26.19,2.39.3,3.82L777,99.75l2.65,1.31,1.11-.59c-.59,5.31-.66,10.74-1.94,15.87-1.14,4.57-4.49,5.79-9.13,6-4.2.16-8.37,1.22-12.56,1.85-6.66,1-14.48-5.13-12.41-13.47,1.44-5.81,1.92-11.86,2.75-17.82a25.05,25.05,0,0,0,.42-6.5c-.28-2.29-1.35-4.48-2-6.75-.42-1.54-1.17-3.27-.8-4.67.3-1.16,4.15-.12,5.58,1.39,3.57,3.76,3.75,8.38,3.55,13.15-.28,6.31-.6,12.63-.71,18.94-.09,4.33,1.61,5.54,5.92,4.68,1.68-.33,3.39-.5,5.07-.82,2.81-.54,4.64-2.33,6.8-4.18s2.83-3.28,2.45-5.69C773.75,102,773.24,101.73,772.78,101.23Z" transform="translate(-76.29 -35.91)"/><path class="cls-1" d="M196.38,128.19l-3.19-3.55L205,107.94c-6.88-3.47-11.45-1.73-19.59,7.33-1.1-3.2-2.17-6.65-6-7.13-1.32-.16-2.86,1.49-5,2.71,3.52,1.55,3.69,3.08,2.13,5.35-2.28,3.29-2.08,6.79.69,9.69s6.09,5.71,9.31,8.68l-.92,1c-5-3.83-10.12-7.47-14.95-11.41-3.72-3-6.91-6.53-6.79-11.89.16-7.34,5.46-11.68,12.54-9.84,3.08.81,5.94,3.33,8.92,3.37s5.67-2.32,8.62-3.26c4.16-1.32,8.13-.84,10.86,3s3.47,8.48.74,12.49C203.12,121.66,199.65,124.65,196.38,128.19Z" transform="translate(-76.29 -35.91)"/><path d="M828.27,124.15l6.72,4c3.52,2.09,6.93.49,10.11-.75,1.1-.44,1.85-2.6,2.15-4.1a26.75,26.75,0,0,0,.75-7.79c-1-10.8-2.24-21.59-3.51-32.36-.48-4.1-1.21-8.16-2-12.22-.93-5.09-3.8-6.49-8.53-4.27-3.8,1.79-9.75.46-13-3.44,2.76-.9,5.24-1.75,7.74-2.5,1-.28,2-.25,3-.46a12.8,12.8,0,0,1,15.68,10.59c1.8,10.65,4.47,21.16,3.44,32.2-.43,4.58,1.11,9.31,1.19,14A79.25,79.25,0,0,1,851,129.58c-.43,3-3.73,4.95-6.73,4.51-5.3-.77-9.68-3.54-13.92-6.52-1.05-.74-1.67-2.09-2.49-3.16Z" transform="translate(-76.29 -35.91)"/><path d="M729.89,78.56c2.7-.64,5.48.93,6.91,3.74,4,7.78,1.86,15.65.59,23.5-.73,4.53-1.73,9-2.69,13.5-.15.67-.67,1.66-1.2,1.8a21.27,21.27,0,0,1-5.73.9c-2.42-.06-3.69-2.87-2.4-6,1.54-3.68,3.73-7.09,5.4-10.72a36.09,36.09,0,0,0,2.59-20.67C733.06,82.51,731.12,80.62,729.89,78.56Z" transform="translate(-76.29 -35.91)"/><path d="M547.73,127.39l2.79-2.62-.21-.74c-1.74.08-3.48.1-5.21.27-2.74.26-4.81-.73-5.87-3.27s-1.38-4.93.26-7.68c2-3.4,3.31-7.26,4.8-11,.14-.35-.48-1-.85-1.73.51-.54,1.12-1.7,2-2,1.14-.44,2.91-.72,3.72-.12s.73,2.45.41,3.57c-1.34,4.62-3,9.15-4.32,13.76-.13.45.94,1.77,1.53,1.82,2.89.25,5.81.27,8.71.24,2.15,0,6.31,2.29,6.85,4.28.65,2.4-1.31,2.87-3,3.19C555.36,126.13,551.28,126.78,547.73,127.39Z" transform="translate(-76.29 -35.91)"/><path d="M428.07,74.11l4.72-1-3.48,6.78c1.19,2.06,5-1.46,4.4,2.94,3.18-1.15,4.87-5.67,9.52-3.27a21.28,21.28,0,0,0-2.63,2.68c-3.51,5.27-8.74,7.88-14.57,9.61-3.33,1-6.08-1.25-5.61-4.74.55-4.13,1.72-8.1,4.74-11.17A12.06,12.06,0,0,1,428.07,74.11Z" transform="translate(-76.29 -35.91)"/><path d="M573.86,117l2.1,4.36,6.9-5.16.4.48c-.41,1.24-.82,2.49-1.24,3.73l.46.46,6.6-5a4.35,4.35,0,0,1-1.7,4.89,16.58,16.58,0,0,0-3.65,5.65c-.79,1.71-.79,3.77-1.56,5.49-.58,1.3-1.82,2.29-2.77,3.42-1.38-1.17-3.26-2.09-4.06-3.57C572.9,127.29,572.76,122.35,573.86,117Z" transform="translate(-76.29 -35.91)"/><path d="M479,142.2c0-3.54.67-5.62,3.05-7.55,2.58-2.1,4.44-5.11,6.56-7.77,1.65-2.08,3.24-4.21,4.79-6.37a33.56,33.56,0,0,1,5-6.07,12.13,12.13,0,0,1-1,3.32c-1.68,2.61-3.65,5-5.36,7.61-1,1.56-1.75,3.32-2.69,4.94a50.17,50.17,0,0,1-2.88,4.57c-1.5,2-3.07,4-4.74,5.87C481.18,141.37,480.18,141.6,479,142.2Z" transform="translate(-76.29 -35.91)"/><path d="M527.7,47.6c8.58,3.83,11.82,7.76,10.57,12.64-3.08.76-6.15,1.42-8-2.09A11.52,11.52,0,0,1,529,55.09C528.48,52.62,528.12,50.12,527.7,47.6Z" transform="translate(-76.29 -35.91)"/><path d="M825.49,123.13c-3.7.82-7.18,1.74-10.72,2.29-1.35.21-3.39.94-3.93-1.51-.17-.77-.3-1.56-.45-2.34a10.26,10.26,0,0,0,1.93-.15c2.52-.64,5-1.35,7.56-2,1-.25,2-.43,3-.61,2.15-.38,3.77-.24,2.69,2.69A4.7,4.7,0,0,0,825.49,123.13Z" transform="translate(-76.29 -35.91)"/><path class="cls-2" d="M279.27,164.27h-5.15v12.32h-4.26V164.27h-5.15v-3h14.56Z" transform="translate(-76.29 -35.91)"/><path class="cls-2" d="M294.8,176.59h-4v-5.71a12.81,12.81,0,0,0-.08-1.39,2.86,2.86,0,0,0-.26-1,1.37,1.37,0,0,0-.65-.56,3.41,3.41,0,0,0-1.19-.17,3.85,3.85,0,0,0-1.1.16,6.18,6.18,0,0,0-1.22.53v8.16h-4v-16h4v5.72a9.94,9.94,0,0,1,2-1.18,5.5,5.5,0,0,1,2.18-.41,4.35,4.35,0,0,1,3.14,1.08,4.3,4.3,0,0,1,1.14,3.25Z" transform="translate(-76.29 -35.91)"/><path class="cls-2" d="M311.41,171.51h-9.12a2.58,2.58,0,0,0,1.11,2.07,5.24,5.24,0,0,0,3,.72,7.29,7.29,0,0,0,2.45-.42,8,8,0,0,0,1.87-.9h.44v3a15.12,15.12,0,0,1-2.55.73,14.18,14.18,0,0,1-2.64.23,9.15,9.15,0,0,1-5.74-1.56,5.3,5.3,0,0,1-2-4.44,5.72,5.72,0,0,1,1.89-4.52,7.54,7.54,0,0,1,5.17-1.66,6.48,6.48,0,0,1,4.57,1.42,5.3,5.3,0,0,1,1.52,4.08Zm-4-2.16a2.46,2.46,0,0,0-.62-1.74A2.5,2.5,0,0,0,305,167a3.05,3.05,0,0,0-1.89.56,2.27,2.27,0,0,0-.83,1.77Z" transform="translate(-76.29 -35.91)"/><path class="cls-2" d="M339,176.59h-5.23l-4.92-6.11-1,1.13v5h-4.25V161.32h4.25v6.92l5.89-6.92h4.93l-6.45,7.07Z" transform="translate(-76.29 -35.91)"/><path class="cls-2" d="M349.11,175.37l-.8.54a7.14,7.14,0,0,1-.9.51,6.34,6.34,0,0,1-1.22.36,7.39,7.39,0,0,1-1.38.12,4.43,4.43,0,0,1-3-1,3.23,3.23,0,0,1-1.2-2.59,3.34,3.34,0,0,1,.61-2.06A4,4,0,0,1,343,170a10.37,10.37,0,0,1,2.75-.66c1.09-.13,2.22-.23,3.4-.29V169a1.32,1.32,0,0,0-.84-1.32,6.63,6.63,0,0,0-2.48-.36,7.84,7.84,0,0,0-2.11.32c-.74.22-1.28.38-1.6.5h-.37v-2.78c.42-.1,1.11-.22,2-.36a19.56,19.56,0,0,1,2.86-.21,9.4,9.4,0,0,1,4.91,1,3.33,3.33,0,0,1,1.51,3v7.83h-3.95Zm0-1.79v-2.39c-.54,0-1.13.09-1.75.16a10.85,10.85,0,0,0-1.43.25,2.07,2.07,0,0,0-.92.51,1.2,1.2,0,0,0-.31.87,2.38,2.38,0,0,0,.06.59.94.94,0,0,0,.34.43,1.83,1.83,0,0,0,.61.3,4.69,4.69,0,0,0,1.1.1,3.56,3.56,0,0,0,1.22-.23A4,4,0,0,0,349.11,173.58Z" transform="translate(-76.29 -35.91)"/><path class="cls-2" d="M369.92,176.59h-4v-5.71a10.7,10.7,0,0,0-.08-1.39,2.86,2.86,0,0,0-.26-1,1.37,1.37,0,0,0-.65-.56,3.37,3.37,0,0,0-1.19-.17,3.85,3.85,0,0,0-1.1.16,6.18,6.18,0,0,0-1.22.53v8.16h-4V165.07h4v1.28a9.74,9.74,0,0,1,2.05-1.18,5.42,5.42,0,0,1,2.17-.41,4.4,4.4,0,0,1,3.15,1.08,4.33,4.33,0,0,1,1.13,3.25Z" transform="translate(-76.29 -35.91)"/><path class="cls-2" d="M386.38,175.27a6.61,6.61,0,0,1-.5,2.72,4.18,4.18,0,0,1-1.39,1.74,6,6,0,0,1-2.17.92,13.72,13.72,0,0,1-2.86.28,21.43,21.43,0,0,1-2.55-.15,18.84,18.84,0,0,1-2.18-.35v-2.88h.49A12.94,12.94,0,0,0,377,178a9,9,0,0,0,1.88.22,6.8,6.8,0,0,0,1.79-.19,2.4,2.4,0,0,0,1.06-.54,2,2,0,0,0,.5-.84,4.4,4.4,0,0,0,.15-1.23v-.21a6.1,6.1,0,0,1-1.59.86,5.7,5.7,0,0,1-2,.32,5.34,5.34,0,0,1-4-1.46,6.11,6.11,0,0,1-1.42-4.43,6.52,6.52,0,0,1,.43-2.46,5.61,5.61,0,0,1,1.22-1.81,5.12,5.12,0,0,1,1.8-1.11,6.09,6.09,0,0,1,2.18-.4,7,7,0,0,1,1.83.22,5.9,5.9,0,0,1,1.5.61l.14-.52h3.88Zm-4-2.31v-5.22a4,4,0,0,0-.84-.21,6.1,6.1,0,0,0-.89-.08,3.09,3.09,0,0,0-2.36.84,3.28,3.28,0,0,0-.78,2.33,3.18,3.18,0,0,0,.67,2.32,2.7,2.7,0,0,0,2,.66,3.86,3.86,0,0,0,1.17-.18A4.57,4.57,0,0,0,382.38,173Z" transform="translate(-76.29 -35.91)"/><path class="cls-2" d="M394.85,176.59h-4v-16h4Z" transform="translate(-76.29 -35.91)"/><path class="cls-2" d="M411.55,171.51h-9.12a2.58,2.58,0,0,0,1.11,2.07,5.24,5.24,0,0,0,3,.72,7.24,7.24,0,0,0,2.44-.42,8.06,8.06,0,0,0,1.88-.9h.44v3a15.12,15.12,0,0,1-2.55.73,14.26,14.26,0,0,1-2.64.23,9.15,9.15,0,0,1-5.74-1.56,5.3,5.3,0,0,1-2-4.44,5.75,5.75,0,0,1,1.88-4.52,7.57,7.57,0,0,1,5.18-1.66,6.47,6.47,0,0,1,4.56,1.42,5.27,5.27,0,0,1,1.53,4.08Zm-4-2.16a2.46,2.46,0,0,0-.62-1.74,2.5,2.5,0,0,0-1.83-.59,3.05,3.05,0,0,0-1.89.56,2.27,2.27,0,0,0-.83,1.77Z" transform="translate(-76.29 -35.91)"/><path class="cls-2" d="M439.14,176.59h-5.23L429,170.48l-1,1.13v5h-4.26V161.32H428v6.92l5.89-6.92h4.93l-6.45,7.07Z" transform="translate(-76.29 -35.91)"/><path class="cls-2" d="M445.82,163.43H441.6v-2.8h4.22Zm-.11,13.16h-4V165.07h4Z" transform="translate(-76.29 -35.91)"/><path class="cls-2" d="M462.66,176.59h-4v-5.71a10.7,10.7,0,0,0-.08-1.39,2.86,2.86,0,0,0-.26-1,1.37,1.37,0,0,0-.65-.56,3.37,3.37,0,0,0-1.19-.17,3.85,3.85,0,0,0-1.1.16,6.12,6.12,0,0,0-1.21.53v8.16h-4V165.07h4v1.28a9.44,9.44,0,0,1,2-1.18,5.42,5.42,0,0,1,2.17-.41,4.4,4.4,0,0,1,3.15,1.08,4.33,4.33,0,0,1,1.13,3.25Z" transform="translate(-76.29 -35.91)"/><path class="cls-2" d="M479.12,176.59h-4v-1.2a8.76,8.76,0,0,1-1.92,1.15,5.54,5.54,0,0,1-2.07.37,4.51,4.51,0,0,1-3.63-1.62,6.62,6.62,0,0,1-1.36-4.37,6.81,6.81,0,0,1,.46-2.6,5.92,5.92,0,0,1,1.26-1.94,5.21,5.21,0,0,1,1.82-1.2,5.87,5.87,0,0,1,2.15-.42,6.27,6.27,0,0,1,1.83.22,11.13,11.13,0,0,1,1.46.56v-4.91h4Zm-4-3.17v-5.66a4.23,4.23,0,0,0-.88-.24,6.77,6.77,0,0,0-.85-.07,2.94,2.94,0,0,0-2.35.91,3.71,3.71,0,0,0-.79,2.52,3.86,3.86,0,0,0,.63,2.46,2.47,2.47,0,0,0,2,.77,4.3,4.3,0,0,0,2.22-.69Z" transform="translate(-76.29 -35.91)"/><path class="cls-2" d="M495.84,171.51h-9.13a2.56,2.56,0,0,0,1.12,2.07,5.2,5.2,0,0,0,3,.72,7.25,7.25,0,0,0,2.45-.42,8,8,0,0,0,1.87-.9h.44v3a15,15,0,0,1-2.54.73,14.37,14.37,0,0,1-2.65.23,9.17,9.17,0,0,1-5.74-1.56,5.33,5.33,0,0,1-2-4.44,5.72,5.72,0,0,1,1.89-4.52,7.55,7.55,0,0,1,5.18-1.66,6.47,6.47,0,0,1,4.56,1.42,5.27,5.27,0,0,1,1.53,4.08Zm-4-2.16a2.46,2.46,0,0,0-.62-1.74,2.49,2.49,0,0,0-1.82-.59,3.1,3.1,0,0,0-1.9.56,2.31,2.31,0,0,0-.83,1.77Z" transform="translate(-76.29 -35.91)"/><path class="cls-2" d="M508.37,168.59H508a4.28,4.28,0,0,0-.81-.12c-.38,0-.69,0-.94,0a9.71,9.71,0,0,0-1.51.1,8.67,8.67,0,0,0-1.4.35v7.71h-4V165.07h4v1.7a8.4,8.4,0,0,1,2.29-1.39,5.39,5.39,0,0,1,1.79-.35h.47l.47,0Z" transform="translate(-76.29 -35.91)"/><path class="cls-2" d="M523.42,175.27a6.45,6.45,0,0,1-.5,2.72,4.1,4.1,0,0,1-1.39,1.74,6,6,0,0,1-2.17.92,13.72,13.72,0,0,1-2.86.28,21.55,21.55,0,0,1-2.55-.15,19.21,19.21,0,0,1-2.18-.35v-2.88h.49A13.35,13.35,0,0,0,514,178a9.06,9.06,0,0,0,1.88.22,6.83,6.83,0,0,0,1.8-.19,2.36,2.36,0,0,0,1-.54,1.87,1.87,0,0,0,.5-.84,4.37,4.37,0,0,0,.16-1.23v-.21a6.16,6.16,0,0,1-1.6.86,5.68,5.68,0,0,1-1.94.32,5.37,5.37,0,0,1-4-1.46,6.15,6.15,0,0,1-1.42-4.43,6.32,6.32,0,0,1,.44-2.46,5.43,5.43,0,0,1,1.21-1.81,5.12,5.12,0,0,1,1.8-1.11,6.09,6.09,0,0,1,2.18-.4,7,7,0,0,1,1.83.22,5.9,5.9,0,0,1,1.5.61l.15-.52h3.87Zm-4-2.31v-5.22a4,4,0,0,0-.84-.21,6.23,6.23,0,0,0-.9-.08,3.05,3.05,0,0,0-2.35.84,4.07,4.07,0,0,0-.12,4.65,2.72,2.72,0,0,0,2,.66,4,4,0,0,0,1.18-.18A5,5,0,0,0,519.43,173Z" transform="translate(-76.29 -35.91)"/><path class="cls-2" d="M535.42,175.37l-.8.54a6.43,6.43,0,0,1-.89.51,6.34,6.34,0,0,1-1.22.36,7.39,7.39,0,0,1-1.38.12,4.39,4.39,0,0,1-3-1,3.23,3.23,0,0,1-1.2-2.59,3.28,3.28,0,0,1,.61-2.06A3.94,3.94,0,0,1,529.3,170a10.29,10.29,0,0,1,2.74-.66c1.1-.13,2.23-.23,3.4-.29V169a1.32,1.32,0,0,0-.84-1.32,6.59,6.59,0,0,0-2.48-.36,7.72,7.72,0,0,0-2.1.32c-.75.22-1.28.38-1.61.5h-.36v-2.78c.42-.1,1.1-.22,2.05-.36a19.52,19.52,0,0,1,2.85-.21,9.36,9.36,0,0,1,4.91,1,3.33,3.33,0,0,1,1.52,3v7.83h-4Zm0-1.79v-2.39c-.54,0-1.12.09-1.75.16a11.17,11.17,0,0,0-1.43.25,2,2,0,0,0-.91.51,1.21,1.21,0,0,0-.32.87,2.32,2.32,0,0,0,.07.59,1,1,0,0,0,.33.43,1.93,1.93,0,0,0,.61.3,4.85,4.85,0,0,0,1.11.1,3.5,3.5,0,0,0,1.21-.23A4,4,0,0,0,535.42,173.58Z" transform="translate(-76.29 -35.91)"/><path class="cls-2" d="M552.76,168.59h-.36a4.28,4.28,0,0,0-.81-.12c-.38,0-.69,0-.94,0a9.49,9.49,0,0,0-1.5.1,8.52,8.52,0,0,0-1.41.35v7.71h-4V165.07h4v1.7a8.4,8.4,0,0,1,2.29-1.39,5.39,5.39,0,0,1,1.79-.35h.47l.47,0Z" transform="translate(-76.29 -35.91)"/><path class="cls-2" d="M563.67,176.49a13.22,13.22,0,0,1-1.36.24,14.79,14.79,0,0,1-1.76.08,5.65,5.65,0,0,1-3.46-.87,3.52,3.52,0,0,1-1.14-3v-5.38h-1.64v-2.51H556v-3.29h4v3.29h3.72v2.51H560v4.08c0,.41,0,.76,0,1.06a2.09,2.09,0,0,0,.18.81,1.12,1.12,0,0,0,.55.57,2.46,2.46,0,0,0,1.14.21,3.75,3.75,0,0,0,.81-.12,3.3,3.3,0,0,0,.7-.23h.33Z" transform="translate(-76.29 -35.91)"/><path class="cls-2" d="M579,171.51h-9.12a2.58,2.58,0,0,0,1.11,2.07,5.24,5.24,0,0,0,3,.72,7.29,7.29,0,0,0,2.45-.42,8,8,0,0,0,1.87-.9h.44v3a15.12,15.12,0,0,1-2.55.73,14.26,14.26,0,0,1-2.64.23,9.15,9.15,0,0,1-5.74-1.56,5.3,5.3,0,0,1-2-4.44,5.72,5.72,0,0,1,1.89-4.52,7.52,7.52,0,0,1,5.17-1.66,6.48,6.48,0,0,1,4.57,1.42,5.3,5.3,0,0,1,1.52,4.08Zm-4-2.16a2.46,2.46,0,0,0-.62-1.74,2.5,2.5,0,0,0-1.83-.59,3.05,3.05,0,0,0-1.89.56,2.27,2.27,0,0,0-.83,1.77Z" transform="translate(-76.29 -35.91)"/><path class="cls-2" d="M595,176.59h-4v-5.71a12.81,12.81,0,0,0-.07-1.39,2.83,2.83,0,0,0-.27-1,1.33,1.33,0,0,0-.65-.56,3.37,3.37,0,0,0-1.19-.17,3.85,3.85,0,0,0-1.1.16,6.12,6.12,0,0,0-1.21.53v8.16h-4V165.07h4v1.28a9.94,9.94,0,0,1,2-1.18,5.45,5.45,0,0,1,2.17-.41,4.4,4.4,0,0,1,3.15,1.08,4.33,4.33,0,0,1,1.13,3.25Z" transform="translate(-76.29 -35.91)"/><path class="cls-2" d="M620.55,170.84a5.76,5.76,0,0,1-1.79,4.47,8.5,8.5,0,0,1-10,0,6.49,6.49,0,0,1,0-9,7.18,7.18,0,0,1,5-1.63,7.1,7.1,0,0,1,5,1.64A5.76,5.76,0,0,1,620.55,170.84Zm-4.91,2.8a2.91,2.91,0,0,0,.58-1.07,5.87,5.87,0,0,0,.2-1.71,6.24,6.24,0,0,0-.2-1.7,2.78,2.78,0,0,0-.56-1.1,2,2,0,0,0-.85-.6,3.38,3.38,0,0,0-1.07-.17,3.56,3.56,0,0,0-1,.14,2.15,2.15,0,0,0-.86.58,2.94,2.94,0,0,0-.58,1.09,6.23,6.23,0,0,0-.21,1.76,6,6,0,0,0,.19,1.63,2.8,2.8,0,0,0,.55,1.12,2.15,2.15,0,0,0,.85.58,3.52,3.52,0,0,0,2.16,0A2.06,2.06,0,0,0,615.64,173.64Z" transform="translate(-76.29 -35.91)"/><path class="cls-2" d="M632.17,163.34h-.3c-.17-.05-.4-.1-.69-.16a4.3,4.3,0,0,0-.91-.1,2.34,2.34,0,0,0-1.58.39,2.06,2.06,0,0,0-.42,1.51v.09h3.07v2.51h-2.93v9h-4v-9H622.7v-2.51h1.71v-.31a4,4,0,0,1,1.21-3.17,5.43,5.43,0,0,1,3.67-1.06c.59,0,1.13,0,1.61.06s.9.09,1.27.15Z" transform="translate(-76.29 -35.91)"/><path class="cls-2" d="M656.27,171.79a4.28,4.28,0,0,1-2.07,3.67,9.78,9.78,0,0,1-5.61,1.41,17,17,0,0,1-3.57-.34,19.77,19.77,0,0,1-2.85-.84V172h.47a10,10,0,0,0,3,1.49,10.24,10.24,0,0,0,3.14.53,8.82,8.82,0,0,0,1-.07,4,4,0,0,0,1-.2,2.61,2.61,0,0,0,.81-.46,1,1,0,0,0,.31-.82,1.06,1.06,0,0,0-.46-.87,3.29,3.29,0,0,0-1.34-.56c-.62-.13-1.28-.26-2-.38a14.92,14.92,0,0,1-1.94-.46,6.18,6.18,0,0,1-3-1.7,3.94,3.94,0,0,1-.91-2.66,4,4,0,0,1,2.06-3.48,9.56,9.56,0,0,1,5.32-1.35,17.28,17.28,0,0,1,3.21.3,15.74,15.74,0,0,1,2.75.73v3.52h-.45a8.72,8.72,0,0,0-2.44-1.24,9.09,9.09,0,0,0-3-.5,9.28,9.28,0,0,0-1.06.07,4.82,4.82,0,0,0-1,.25,2,2,0,0,0-.75.47,1,1,0,0,0-.31.71,1.06,1.06,0,0,0,.5.93,6.07,6.07,0,0,0,1.88.59l1.75.34q.84.16,1.8.45a6.06,6.06,0,0,1,2.79,1.56A3.64,3.64,0,0,1,656.27,171.79Z" transform="translate(-76.29 -35.91)"/><path class="cls-2" d="M672.15,176.59h-4v-5.71a12.81,12.81,0,0,0-.08-1.39,2.64,2.64,0,0,0-.27-1,1.33,1.33,0,0,0-.65-.56,3.37,3.37,0,0,0-1.19-.17,3.85,3.85,0,0,0-1.1.16,6.12,6.12,0,0,0-1.21.53v8.16h-4v-16h4v5.72a9.94,9.94,0,0,1,2-1.18,5.45,5.45,0,0,1,2.17-.41,4.4,4.4,0,0,1,3.15,1.08,4.3,4.3,0,0,1,1.13,3.25Z" transform="translate(-76.29 -35.91)"/><path class="cls-2" d="M684.05,175.37l-.79.54a7.14,7.14,0,0,1-.9.51,6.34,6.34,0,0,1-1.22.36,7.39,7.39,0,0,1-1.38.12,4.39,4.39,0,0,1-3-1,3.23,3.23,0,0,1-1.2-2.59,3.28,3.28,0,0,1,.61-2.06,3.94,3.94,0,0,1,1.73-1.26,10.29,10.29,0,0,1,2.74-.66c1.1-.13,2.23-.23,3.41-.29V169a1.33,1.33,0,0,0-.85-1.32,6.59,6.59,0,0,0-2.48-.36,7.77,7.77,0,0,0-2.1.32c-.75.22-1.28.38-1.61.5h-.36v-2.78c.42-.1,1.1-.22,2.05-.36a19.52,19.52,0,0,1,2.85-.21,9.36,9.36,0,0,1,4.91,1,3.33,3.33,0,0,1,1.52,3v7.83h-4Zm0-1.79v-2.39c-.54,0-1.12.09-1.75.16a11.51,11.51,0,0,0-1.43.25,2.09,2.09,0,0,0-.91.51,1.2,1.2,0,0,0-.31.87,2.38,2.38,0,0,0,.06.59,1,1,0,0,0,.33.43,1.93,1.93,0,0,0,.61.3,4.85,4.85,0,0,0,1.11.1,3.5,3.5,0,0,0,1.21-.23A4,4,0,0,0,684.05,173.58Z" transform="translate(-76.29 -35.91)"/><path class="cls-2" d="M704.87,176.59h-4v-5.71a12.81,12.81,0,0,0-.08-1.39,2.86,2.86,0,0,0-.26-1,1.37,1.37,0,0,0-.65-.56,3.41,3.41,0,0,0-1.19-.17,4,4,0,0,0-1.11.16,6.38,6.38,0,0,0-1.21.53v8.16h-4V165.07h4v1.28a9.94,9.94,0,0,1,2-1.18,5.5,5.5,0,0,1,2.18-.41,4.35,4.35,0,0,1,3.14,1.08,4.3,4.3,0,0,1,1.14,3.25Z" transform="translate(-76.29 -35.91)"/><path class="cls-2" d="M722.24,176.59h-4.66l-2.65-3.45-2.73,3.45h-4.56l4.91-5.77-4.83-5.75h4.65l2.61,3.38,2.63-3.38h4.57l-4.84,5.68Z" transform="translate(-76.29 -35.91)"/><path class="cls-2" d="M729.22,163.43H725v-2.8h4.22Zm-.11,13.16h-4V165.07h4Z" transform="translate(-76.29 -35.91)"/><path class="cls-2" d="M755.85,166.14a5.44,5.44,0,0,1-.39,2,4.28,4.28,0,0,1-1.1,1.64,6.74,6.74,0,0,1-2.2,1.36,8.51,8.51,0,0,1-3,.47h-2.65v5h-4.25V161.32h7a12.35,12.35,0,0,1,2.65.25,6.41,6.41,0,0,1,1.91.76,4.26,4.26,0,0,1,1.53,1.54A4.62,4.62,0,0,1,755.85,166.14Zm-4.4.09a1.71,1.71,0,0,0-.37-1.11,2,2,0,0,0-.88-.65,3.82,3.82,0,0,0-1.29-.27c-.42,0-1,0-1.69,0h-.73v4.56h1.22a11,11,0,0,0,1.79-.12,2.57,2.57,0,0,0,1.18-.49,1.93,1.93,0,0,0,.59-.78A3,3,0,0,0,751.45,166.23Z" transform="translate(-76.29 -35.91)"/><path class="cls-2" d="M768.36,168.59H768a4.56,4.56,0,0,0-.82-.12c-.38,0-.69,0-.94,0a9.49,9.49,0,0,0-1.5.1,8.52,8.52,0,0,0-1.41.35v7.71h-4V165.07h4v1.7a8.4,8.4,0,0,1,2.29-1.39,5.39,5.39,0,0,1,1.79-.35h.47l.47,0Z" transform="translate(-76.29 -35.91)"/><path class="cls-2" d="M784,170.84a5.76,5.76,0,0,1-1.78,4.47,8.52,8.52,0,0,1-10,0,6.49,6.49,0,0,1,0-9,8.54,8.54,0,0,1,10,0A5.79,5.79,0,0,1,784,170.84Zm-4.9,2.8a2.91,2.91,0,0,0,.58-1.07,7.55,7.55,0,0,0,0-3.41,2.77,2.77,0,0,0-.55-1.1,2,2,0,0,0-.85-.6,3.4,3.4,0,0,0-1.08-.17,3.54,3.54,0,0,0-1,.14,2.08,2.08,0,0,0-.86.58,2.81,2.81,0,0,0-.58,1.09,6.19,6.19,0,0,0-.22,1.76,6.46,6.46,0,0,0,.19,1.63,2.81,2.81,0,0,0,.56,1.12,2.05,2.05,0,0,0,.84.58,3.31,3.31,0,0,0,1.13.18,3.22,3.22,0,0,0,1-.16A2,2,0,0,0,779.13,173.64Z" transform="translate(-76.29 -35.91)"/><path class="cls-2" d="M800.12,165.07l-4.8,11.52h-4.51L786,165.07h4.21l2.89,7.93,2.85-7.93Z" transform="translate(-76.29 -35.91)"/><path class="cls-2" d="M807.15,163.43h-4.22v-2.8h4.22ZM807,176.59h-4V165.07h4Z" transform="translate(-76.29 -35.91)"/><path class="cls-2" d="M824,176.59h-4v-5.71a12.81,12.81,0,0,0-.08-1.39,2.64,2.64,0,0,0-.27-1,1.3,1.3,0,0,0-.64-.56,3.45,3.45,0,0,0-1.19-.17,3.92,3.92,0,0,0-1.11.16,6.38,6.38,0,0,0-1.21.53v8.16h-4V165.07h4v1.28a9.94,9.94,0,0,1,2-1.18,5.45,5.45,0,0,1,2.17-.41,4.38,4.38,0,0,1,3.15,1.08,4.3,4.3,0,0,1,1.13,3.25Z" transform="translate(-76.29 -35.91)"/><path class="cls-2" d="M834.83,176.9a11.46,11.46,0,0,1-3-.36,6.68,6.68,0,0,1-2.34-1.11,5,5,0,0,1-1.53-1.89,6.89,6.89,0,0,1,0-5.44,5.26,5.26,0,0,1,1.62-1.94,7.06,7.06,0,0,1,2.32-1.07,11.24,11.24,0,0,1,2.74-.33,10.21,10.21,0,0,1,2.35.25,12,12,0,0,1,2,.67v3.15h-.56l-.56-.43a4.82,4.82,0,0,0-.8-.49,5.61,5.61,0,0,0-1-.37,4.73,4.73,0,0,0-1.26-.15,3.14,3.14,0,0,0-2.45.94,3.64,3.64,0,0,0-.85,2.55,3.35,3.35,0,0,0,.88,2.52,3.41,3.41,0,0,0,2.49.86,5.1,5.1,0,0,0,1.35-.16,4.21,4.21,0,0,0,1-.37,5.17,5.17,0,0,0,.67-.43l.53-.44h.56V176a11,11,0,0,1-2,.66A10,10,0,0,1,834.83,176.9Z" transform="translate(-76.29 -35.91)"/><path class="cls-2" d="M854.65,171.51h-9.13a2.56,2.56,0,0,0,1.12,2.07,5.24,5.24,0,0,0,3,.72,7.24,7.24,0,0,0,2.44-.42A7.77,7.77,0,0,0,854,173h.45v3a15.12,15.12,0,0,1-2.55.73,14.37,14.37,0,0,1-2.65.23,9.13,9.13,0,0,1-5.73-1.56,5.31,5.31,0,0,1-2-4.44,5.72,5.72,0,0,1,1.89-4.52,7.57,7.57,0,0,1,5.18-1.66,6.47,6.47,0,0,1,4.56,1.42,5.27,5.27,0,0,1,1.53,4.08Zm-4-2.16a2.41,2.41,0,0,0-.62-1.74,2.49,2.49,0,0,0-1.82-.59,3.1,3.1,0,0,0-1.9.56,2.31,2.31,0,0,0-.83,1.77Z" transform="translate(-76.29 -35.91)"/></svg>