<svg id="图层_1" data-name="图层 1" xmlns="http://www.w3.org/2000/svg" viewBox="0 0 392 100"><defs><style>.cls-1{fill:#fafafa;}.cls-2{fill:#0072b5;}</style></defs><title>wechat button</title><rect class="cls-1" width="392" height="100"/><path class="cls-2" d="M89.21,35.31c-8.94.45-16.69,3.16-23,9.28s-9.29,13.76-8.49,23.15c-3.49-.43-6.67-.91-9.87-1.18a6.21,6.21,0,0,0-3.37.57c-3.09,1.76-6.07,3.73-9.59,5.94.65-2.93,1.07-5.5,1.81-8,.54-1.81.29-2.81-1.38-4C24.57,53.53,20.05,42.19,23.44,30.53,26.57,19.74,34.26,13.18,44.7,9.77,59,5.12,75,9.87,83.65,21.19A26.7,26.7,0,0,1,89.21,35.31ZM48.08,31.66a4.11,4.11,0,0,0-4-4.12A4,4,0,0,0,40,31.39h0a4,4,0,0,0,3.8,4.11h.11A4.06,4.06,0,0,0,48.08,31.66Zm21.46-4.12a4.13,4.13,0,0,0-4,4.06,4,4,0,0,0,4.11,3.93h0a4,4,0,0,0,.11-8Z"/><path class="cls-2" d="M109.28,91c-2.83-1.26-5.42-3.15-8.18-3.44s-5.65,1.3-8.53,1.59a28.45,28.45,0,0,1-23.11-7.53C57.13,70.22,58.9,52.74,73.15,43.39c12.67-8.3,31.26-5.53,40.19,6,7.8,10,6.89,23.4-2.63,31.84-2.76,2.45-3.75,4.46-2,7.68A8.48,8.48,0,0,1,109.28,91ZM77.22,59.82a3.33,3.33,0,0,0,0-6.65h0a3.38,3.38,0,0,0-3.36,3.41v0A3.35,3.35,0,0,0,77.22,59.82Zm20.64-6.65a3.33,3.33,0,0,0-3.32,3.19,3.29,3.29,0,0,0,3.12,3.44h.14a3.26,3.26,0,0,0,3.31-3.16,3.33,3.33,0,0,0-3.17-3.47Z"/><path class="cls-2" d="M129.7,54.42q6.11-4.1,10.54-13.26l3,1.86c.25.13.35.24.3.34s-.17.17-.49.32a8.23,8.23,0,0,0-1.66,1.49c-.39.66-1.12,1.83-2.2,3.49v21.6a20.09,20.09,0,0,0,.32,4h-3.32a18.63,18.63,0,0,0,.32-4V52.13q-1.58,2-3.52,4.15A15.49,15.49,0,0,0,129.7,54.42Zm3.71-12.16a23.11,23.11,0,0,0-2.71-1.95,31.52,31.52,0,0,0,9.49-11.74l3,2a.33.33,0,0,1,.19.27c0,.13-.14.27-.44.44a3.35,3.35,0,0,0-1.51,1.24A82.53,82.53,0,0,1,133.41,42.26Zm6.25,26.2q6-4.11,6-12.58a27.73,27.73,0,0,0-.27-3.8,15.41,15.41,0,0,0,3.2.29h4.91a16.48,16.48,0,0,0,3.2-.29,12.25,12.25,0,0,0-.49,3.24l-.46,7.45a36.86,36.86,0,0,0,4.71-4l.29,3.2a66.13,66.13,0,0,0-6.76,5.3l-1.78-2.64a3,3,0,0,0,1-2.75l.29-7.16H148.3a19.4,19.4,0,0,1-5.91,15.36A8.65,8.65,0,0,0,139.66,68.46Zm5.59-22.34h14.11q3.49-5.86,5-17.75l3.61,1.1c.39.13.57.24.54.34s-.16.24-.59.51a2.91,2.91,0,0,0-1.05,1.83c-.57,2.35-1.25,4.85-2,7.52h8.55a11.33,11.33,0,0,0,2.9-.31v3.1a11.6,11.6,0,0,0-2.95-.3h-.81q-.19,13-3.63,20.15a20.67,20.67,0,0,0,8.83,8.76,7.25,7.25,0,0,0-3.58,2.59A37.55,37.55,0,0,1,167,65a44.11,44.11,0,0,1-13.21,9.25,7,7,0,0,0-2.39-3,23.93,23.93,0,0,0,14-8.88,58.66,58.66,0,0,1-3.93-13.87c-.41.73-.77,1.38-1.1,1.95a13.79,13.79,0,0,0-3.2-1,8.58,8.58,0,0,0,.73-1h-12.5a15,15,0,0,0-3.14.29v-3A13.94,13.94,0,0,0,145.25,46.12Zm2.05-9.86v4.15h3.61V32.76a25.46,25.46,0,0,0-.32-4.29l3.76.49c.43.08.66.22.69.41s-.26.46-.69.81a3.31,3.31,0,0,0-.95,2.68v7.55h3.91V35.57a33.86,33.86,0,0,0-.27-4.2l3.76.64c.29,0,.44.1.44.22s-.1.27-.39.53a3.44,3.44,0,0,0-1,3.06v4a16.06,16.06,0,0,0,.29,3.25,16.21,16.21,0,0,0-3.2-.3H148.1a18,18,0,0,0-3.61.3,16.34,16.34,0,0,0,.32-3.45V36a24.94,24.94,0,0,0-.32-4.59l3.71.49c.3.07.46.22.49.47a.82.82,0,0,1-.49.58C147.6,33.22,147.3,34.34,147.3,36.26Zm17.41,11.15a12.15,12.15,0,0,0-.08,1.22q0,4.15,2.66,10.43,2.06-5.3,2.3-16.9H164.1q-.81,2.21-2.3,5.67Z"/><path class="cls-2" d="M179.5,49.22q8-6.19,12.7-21.14L196,29.76c.26.13.37.26.34.38s-.21.28-.54.48a6.56,6.56,0,0,0-2.22,3.1A47.15,47.15,0,0,1,191,39V70c0,1,.13,2.59.29,4.69H187.9c.16-1.89.26-3.45.29-4.69V44.21c-1.5,2.41-3.07,4.78-4.73,7.11A17.47,17.47,0,0,0,179.5,49.22Zm14.94-10.3v-3.1c1.5.16,2.77.26,3.81.29h14.09q-3.39-3-7.13-5.88l2.34-2.47q3.91,3,7.45,5.81l-2.3,2.54h9.55c.93,0,2.38-.1,4.35-.29v3.1c-2-.17-3.42-.26-4.35-.3h-24A32.76,32.76,0,0,0,194.44,38.92Zm7.16,35.79h-3.35c.16-1.66.26-3.09.29-4.3V62.72c0-.94-.13-2.41-.29-4.39,2.39.19,4,.29,4.86.29H217.2c1,0,2.66-.1,5.05-.29-.16,1.56-.26,3-.29,4.44v7.35c0,.7.09,2.11.29,4.25h-3.39a25.13,25.13,0,0,0,.29-3.2h-17.8C201.35,71.87,201.43,73.05,201.6,74.71Zm-3-28.2v-3a36.56,36.56,0,0,0,4.2.31h15.55c.88,0,2.26-.13,4.15-.31v3c-1.66-.16-3-.26-4.15-.29H202.84C201.75,46.25,200.35,46.35,198.64,46.51Zm0,7.35v-3c1.71.18,3.11.28,4.2.31h15.55c1,0,2.4-.13,4.15-.31v3c-1.75-.16-3.14-.26-4.15-.29H202.84C201.91,53.6,200.51,53.7,198.64,53.86Zm2.71,7.25v7.67h17.8V61.11Z"/><path class="cls-2" d="M245.64,31.47l3.9,1.54c.35.13.52.28.52.46s-.22.3-.56.39a4.88,4.88,0,0,0-2.1,2.35,58,58,0,0,1-13.46,19.85,42.38,42.38,0,0,0-3.63-2.4Q240,47.83,245.64,31.47ZM243.76,68q3.39-.19,11.69-.9l7.64-.61q-3.34-5.2-5.44-7.84l2.66-1.81q5.44,8,9,14l-2.91,1.88a20.81,20.81,0,0,0-2.1-3.84q-12.41,1.05-20.09,2c-.1,0-1.43.3-4,.92-.83-1.59-1.39-2.71-1.68-3.34a10,10,0,0,0,2.69-1.78A82.33,82.33,0,0,0,252,45.46l3.93,1.2c.41.14.61.31.61.51s-.27.41-.71.66a4.24,4.24,0,0,0-1.63,2.29A123.4,123.4,0,0,1,243.76,68Zm29.39-12q-13-10.65-16.79-25.54a.39.39,0,0,0,.14,0c.57-.13,1.57-.33,3-.61q3.39,15,17.23,23.51Q275.26,54.37,273.15,56Z"/><path class="cls-2" d="M280.45,71.71q11.87-6.92,11.87-20.51c0-.7,0-1.43-.07-2.18l3.9.83c.47.12.71.22.71.32s-.17.25-.61.54a2.68,2.68,0,0,0-.86,1.51q-.33,3-.95,5.94,4.62,3.21,9.87,7.15a30.33,30.33,0,0,0-2.1,2.9q-3.48-3.19-8.62-7-2.4,6.57-9.5,12.86A38.4,38.4,0,0,0,280.45,71.71Zm21.8-43,4.06.95c.29.07.44.18.44.33s-.17.37-.49.63a2.32,2.32,0,0,0-.95,1.9q3.74,9.21,19.14,14.36a18.4,18.4,0,0,0-3.05,3q-13.75-6.76-17.56-14.72-4.29,10.56-17.55,15.3A28.21,28.21,0,0,0,283,47.32Q300.54,44.5,302.25,28.71Zm-3.66,43.9q6.68-3.3,9.26-8.94Q310,59.08,310,51.54c0-1.09,0-2.21-.09-3.37l3.66.76c.45.09.7.19.73.29s-.11.31-.44.54a2.93,2.93,0,0,0-.85,1.75c0,.44-.07,1-.1,1.62s0,.95,0,1.29q2.06,10.35,13.84,16.65a7.64,7.64,0,0,0-3.34,2.44q-8.89-7.2-11.4-13.74-1.81,8.59-9.7,14.69A34.88,34.88,0,0,0,298.59,72.61Z"/><path class="cls-2" d="M346.76,56.62h18.53c1.34,0,2.77-.13,4.3-.3-.23,1.22-.41,2.54-.54,3.93q-.66,8.63-3.39,10.41-2.81,2.46-15.16,2.8a10.22,10.22,0,0,0-1.05-3.85,32.68,32.68,0,0,0,5.61.48c.65,0,1.39,0,2.2-.07a17.63,17.63,0,0,0,6.08-1.34Q366,67,366.1,59.11H346.54c-1.19,0-2.72.14-4.59.31a51.94,51.94,0,0,0,3.54-8.2H336c-1.31,0-2.77.13-4.4.29v-3.1c1.56.17,3,.26,4.4.3h35.59c1.37,0,2.78-.13,4.25-.3v3.1c-1.47-.16-2.88-.26-4.25-.29H349.06Q348,53.43,346.76,56.62Zm-6.37-26.15c1.71.16,3.16.26,4.37.29h18.38c1.37,0,2.82-.13,4.35-.29-.16,1.59-.26,3-.29,4.25v5.69c0,1.23.13,2.65.29,4.24-1.56-.16-3-.26-4.35-.29H344.91c-1.31,0-2.81.13-4.52.29.18-1.4.28-2.8.32-4.19V34.77C340.67,33.5,340.57,32.06,340.39,30.47Zm24.12,11.4V33.28H343.39v8.59Z"/></svg>